<?xml version="1.0" standalone="no"?>
<!DOCTYPE svg PUBLIC "-//W3C//DTD SVG 20010904//EN"
 "http://www.w3.org/TR/2001/REC-SVG-20010904/DTD/svg10.dtd">
<svg version="1.0" xmlns="http://www.w3.org/2000/svg"
 width="500.000000pt" height="311.000000pt" viewBox="0 0 500.000000 311.000000"
 preserveAspectRatio="xMidYMid meet">

<g transform="translate(0.000000,311.000000) scale(0.100000,-0.100000)"
fill="#000000" stroke="none">
<path d="M2269 3075 c-299 -48 -592 -187 -788 -371 -55 -52 -55 -53 -28 -54
21 0 45 14 85 51 127 113 327 225 506 284 164 53 269 69 456 69 187 0 292 -16
457 -70 180 -58 377 -169 505 -283 40 -37 64 -51 85 -51 27 1 25 3 -37 62
-170 158 -440 293 -698 349 -128 27 -417 35 -543 14z"/>
<path d="M2946 2470 c-103 -18 -188 -102 -222 -218 -24 -80 -16 -239 15 -310
30 -68 104 -135 168 -153 63 -17 170 -15 219 6 57 23 111 81 134 142 11 30 20
56 20 58 0 3 -13 5 -29 5 -25 0 -31 -6 -41 -35 -16 -47 -57 -95 -97 -111 -45
-19 -137 -18 -180 3 -76 36 -119 156 -111 310 4 76 10 103 34 150 38 75 78
103 151 103 95 0 161 -46 183 -130 9 -35 14 -40 40 -40 l30 0 0 110 0 110 -29
0 c-24 0 -31 -5 -36 -29 l-6 -29 -47 28 c-53 32 -122 43 -196 30z"/>
<path d="M960 2447 c0 -22 6 -26 40 -32 l40 -7 0 -283 0 -283 -40 -7 c-34 -6
-40 -10 -40 -32 l0 -25 203 4 c151 4 213 9 244 21 130 49 201 182 190 356 -8
141 -65 236 -170 282 -48 21 -69 24 -259 27 l-208 4 0 -25z m377 -48 c98 -25
147 -117 147 -279 0 -211 -71 -286 -264 -278 l-75 3 -3 270 c-1 148 0 275 3
282 6 17 129 17 192 2z"/>
<path d="M1680 2446 c0 -19 7 -25 43 -32 l42 -9 0 -280 0 -280 -42 -9 c-36 -7
-43 -13 -43 -32 l0 -24 140 0 140 0 0 24 c0 19 -7 25 -42 32 l-43 9 0 280 0
280 43 9 c35 7 42 13 42 32 l0 24 -140 0 -140 0 0 -24z"/>
<path d="M2040 2446 c0 -19 7 -25 43 -32 l42 -9 0 -280 0 -280 -42 -9 c-36 -7
-43 -13 -43 -32 l0 -24 280 0 280 0 0 105 0 105 -29 0 c-28 0 -29 -3 -42 -72
l-14 -73 -143 -3 -142 -3 0 131 0 131 77 -3 77 -3 9 -42 c7 -39 11 -43 38 -43
l29 0 0 125 0 125 -30 0 c-26 0 -30 -4 -35 -37 -11 -66 -9 -64 -87 -61 l-73 3
-3 123 -3 122 134 0 134 0 14 -67 c13 -63 16 -68 42 -71 l27 -3 0 100 0 101
-270 0 -270 0 0 -24z"/>
<path d="M3360 2446 c0 -20 7 -26 38 -33 l37 -9 0 -279 0 -279 -37 -9 c-31 -7
-38 -13 -38 -33 l0 -24 130 0 130 0 0 24 c0 20 -7 26 -37 33 l-38 9 -3 132 -3
133 158 -3 158 -3 0 -130 0 -129 -37 -9 c-31 -7 -38 -13 -38 -33 l0 -24 130 0
130 0 0 24 c0 20 -6 25 -40 31 l-40 7 0 283 0 283 40 7 c34 6 40 11 40 31 l0
24 -128 0 c-71 0 -131 -3 -134 -6 -15 -15 7 -43 40 -51 l37 -9 0 -119 0 -120
-158 -3 -158 -3 3 123 3 123 38 9 c29 8 37 14 37 33 0 23 -1 23 -130 23 l-130
0 0 -24z"/>
<path d="M1446 461 c-16 -6 -10 -15 45 -64 179 -163 440 -292 702 -349 138
-30 455 -32 590 -5 203 41 405 124 572 235 91 61 215 166 215 183 0 24 -45 4
-102 -47 -192 -169 -452 -292 -723 -341 -125 -23 -379 -22 -505 2 -259 49
-520 174 -708 339 -35 31 -64 56 -65 55 -1 0 -10 -4 -21 -8z"/>
</g>
</svg>
